<?xml version="1.0" standalone="no"?>
<!DOCTYPE svg PUBLIC "-//W3C//DTD SVG 20010904//EN"
 "http://www.w3.org/TR/2001/REC-SVG-20010904/DTD/svg10.dtd">
<svg version="1.0" xmlns="http://www.w3.org/2000/svg"
 width="137.000000pt" height="42.000000pt" viewBox="0 0 137.000000 42.000000"
 preserveAspectRatio="xMidYMid meet">

<g transform="translate(0.000000,42.000000) scale(0.100000,-0.100000)"
fill="#000000" stroke="none">
<path d="M250 200 c0 -163 1 -170 20 -170 18 0 20 7 20 85 0 84 0 85 25 85 33
0 35 37 3 42 -21 3 -23 9 -26 66 -3 54 -6 62 -22 62 -19 0 -20 -8 -20 -170z"/>
<path d="M900 200 c0 -163 1 -170 20 -170 18 0 20 7 20 85 0 84 0 85 25 85 18
0 25 5 25 20 0 15 -7 20 -25 20 -24 0 -25 2 -25 65 0 58 -2 65 -20 65 -19 0
-20 -7 -20 -170z"/>
<path d="M1234 357 c-2 -7 -3 -82 -2 -167 3 -152 3 -155 26 -158 l22 -3 0 170
c0 165 -1 171 -20 171 -11 0 -23 -6 -26 -13z"/>
<path d="M380 330 c0 -16 7 -20 30 -20 32 0 36 -9 24 -69 -6 -28 -10 -31 -46
-31 -32 0 -39 -3 -36 -17 3 -15 16 -19 66 -21 l62 -3 0 -69 c0 -68 1 -70 25
-70 24 0 25 2 25 70 l0 70 65 0 c58 0 65 2 65 20 0 14 -7 20 -21 20 -21 0 -21
3 -15 70 l7 70 -60 0 c-54 0 -61 -2 -61 -20 0 -16 7 -20 35 -20 32 0 35 -3 35
-27 0 -62 -9 -73 -57 -73 l-46 0 7 70 7 70 -55 0 c-49 0 -56 -2 -56 -20z"/>
<path d="M40 225 l0 -115 73 0 c92 0 116 7 110 29 -4 14 -14 16 -69 13 l-64
-4 0 76 0 76 55 0 c48 0 55 2 55 20 0 18 -7 20 -80 20 l-80 0 0 -115z"/>
<path d="M1020 320 c0 -18 7 -20 55 -20 52 0 55 -1 55 -25 0 -24 -3 -25 -55
-25 l-55 0 0 -70 0 -70 79 0 c91 0 111 5 111 29 0 14 -10 16 -70 13 l-70 -4 0
31 c0 31 0 31 55 31 l55 0 0 65 0 65 -80 0 c-73 0 -80 -2 -80 -20z"/>
<path d="M690 310 c0 -16 7 -20 30 -20 26 0 30 -4 30 -27 0 -31 -31 -88 -61
-112 -17 -14 -18 -18 -6 -34 13 -18 14 -18 45 7 17 15 34 36 37 47 6 19 10 17
44 -20 41 -44 55 -50 65 -25 4 10 -6 30 -29 55 -19 22 -35 48 -35 58 0 11 -3
26 -6 34 -4 12 3 16 28 19 22 2 34 9 36 21 3 15 -6 17 -87 17 -84 0 -91 -1
-91 -20z"/>
</g>
</svg>
